<svg width="21" height="21" viewBox="0 0 21 21" fill="none" xmlns="http://www.w3.org/2000/svg">
<g clip-path="url(#clip0_13649_80389)">
<path d="M2.54306 0.567383H13.2381L18.8247 6.13224V19.3883C18.8247 19.9662 18.3561 20.4343 17.7787 20.4343H2.54306C1.96564 20.4343 1.49707 19.9662 1.49707 19.3883V1.61337C1.49707 1.03551 1.9657 0.567383 2.54306 0.567383Z" fill="white" stroke="#B5B5B5" stroke-width="0.447266"/>
<path d="M13.5596 0.895749L18.4914 5.83249H14.6056C14.0282 5.83249 13.5596 5.36385 13.5596 4.7865V0.895749Z" fill="#D9D9D9" stroke="#B5B5B5" stroke-width="0.447266"/>
<path d="M5.38654 12.4586V14.0213H4.47266V9.58594H6.20294C6.53601 9.58594 6.82845 9.64686 7.08027 9.76871C7.33413 9.89057 7.52909 10.0642 7.66516 10.2896C7.80123 10.513 7.86926 10.7679 7.86926 11.0542C7.86926 11.4888 7.71999 11.8321 7.42146 12.0839C7.12495 12.3337 6.71371 12.4586 6.18771 12.4586H5.38654ZM5.38654 11.7183H6.20294C6.44462 11.7183 6.62841 11.6615 6.75432 11.5477C6.88227 11.434 6.94624 11.2715 6.94624 11.0603C6.94624 10.843 6.88227 10.6674 6.75432 10.5333C6.62638 10.3993 6.44969 10.3302 6.22427 10.3262H5.38654V11.7183Z" fill="white"/>
<path d="M9.41373 12.4586V14.0213H8.49984V9.58594H10.2301C10.5632 9.58594 10.8556 9.64686 11.1075 9.76871C11.3613 9.89057 11.5563 10.0642 11.6923 10.2896C11.8284 10.513 11.8964 10.7679 11.8964 11.0542C11.8964 11.4888 11.7472 11.8321 11.4486 12.0839C11.1521 12.3337 10.7409 12.4586 10.2149 12.4586H9.41373ZM9.41373 11.7183H10.2301C10.4718 11.7183 10.6556 11.6615 10.7815 11.5477C10.9095 11.434 10.9734 11.2715 10.9734 11.0603C10.9734 10.843 10.9095 10.6674 10.7815 10.5333C10.6536 10.3993 10.4769 10.3302 10.2515 10.3262H9.41373V11.7183Z" fill="white"/>
<path d="M15.8658 10.3262H14.5071V14.0213H13.5932V10.3262H12.2529V9.58594H15.8658V10.3262Z" fill="white"/>
<path d="M8.14617 8.22266V12.5684H7.25375V8.22266H8.14617ZM9.48331 8.22266V8.92406H5.9375V8.22266H9.48331Z" fill="#A4A4A4"/>
<path d="M10.3996 9.33893L10.9339 10.3209L11.483 9.33893H12.3993L11.486 10.9178L12.4411 12.5684H11.5218L10.9398 11.5297L10.3578 12.5684H9.43854L10.3936 10.9178L9.48032 9.33893H10.3996Z" fill="#A4A4A4"/>
<path d="M14.3991 9.33893V9.9478H12.5187V9.33893H14.3991ZM12.9843 8.54202H13.8439V11.5954C13.8439 11.6889 13.8559 11.7605 13.8797 11.8102C13.9056 11.86 13.9434 11.8948 13.9932 11.9147C14.0429 11.9326 14.1056 11.9416 14.1812 11.9416C14.2349 11.9416 14.2827 11.9396 14.3245 11.9356C14.3682 11.9296 14.4051 11.9237 14.4349 11.9177L14.4379 12.5505C14.3643 12.5743 14.2847 12.5932 14.1991 12.6072C14.1135 12.6211 14.019 12.6281 13.9156 12.6281C13.7265 12.6281 13.5614 12.5972 13.4201 12.5355C13.2808 12.4719 13.1734 12.3704 13.0978 12.2311C13.0221 12.0918 12.9843 11.9087 12.9843 11.6819V8.54202Z" fill="#A4A4A4"/>
</g>
<defs>
<clipPath id="clip0_13649_80389">
<rect width="20.3142" height="20.3142" fill="white" transform="translate(0 0.34375)"/>
</clipPath>
</defs>
</svg>
