<svg width="137" height="137" viewBox="0 0 137 137" fill="none" xmlns="http://www.w3.org/2000/svg">
<g clip-path="url(#clip0)">
<path d="M17.2581 0H89.6139L127.966 38.2028V127.74C127.966 132.445 124.151 136.256 119.45 136.256H17.2581C12.5571 136.256 8.74219 132.445 8.74219 127.74V8.51589C8.74219 3.81098 12.5576 0 17.2581 0Z" fill="#A8ADAF"/>
<path d="M127.835 38.3175H98.1526C93.4517 38.3175 89.6367 34.5026 89.6367 29.8016V0.0808105L127.835 38.3175Z" fill="#7D8488"/>
<path d="M44.6365 62.2412H50.6793V82.545C50.6793 84.4115 50.263 86.0632 49.4305 87.5001C48.6113 88.9235 47.4498 90.0246 45.9458 90.8035C44.4418 91.5823 42.7431 91.9717 40.8497 91.9717C37.7478 91.9717 35.3307 91.1862 33.5984 89.615C31.8661 88.0305 31 85.7947 31 82.9076H37.0831C37.0831 84.3444 37.3852 85.4052 37.9895 86.0901C38.5938 86.7749 39.5472 87.1174 40.8497 87.1174C42.0046 87.1174 42.9244 86.7212 43.6093 85.9289C44.2941 85.1367 44.6365 84.0087 44.6365 82.545V62.2412Z" fill="white"/>
<path d="M61.8987 81.2357V91.5689H55.856V62.2412H67.297C69.4992 62.2412 71.4329 62.6441 73.098 63.4498C74.7766 64.2555 76.0657 65.4036 76.9654 66.8942C77.8651 68.3713 78.315 70.0566 78.315 71.95C78.315 74.8237 77.328 77.0931 75.354 78.7582C73.3934 80.4099 70.6742 81.2357 67.1962 81.2357H61.8987ZM61.8987 76.3411H67.297C68.8949 76.3411 70.1102 75.9651 70.9428 75.2131C71.7888 74.4611 72.2117 73.3868 72.2117 71.9903C72.2117 70.5534 71.7888 69.3919 70.9428 68.5056C70.0968 67.6193 68.9285 67.1627 67.438 67.1359H61.8987V76.3411Z" fill="white"/>
<path d="M105.689 87.8626C104.601 89.1652 103.063 90.179 101.076 90.9042C99.0887 91.6159 96.8864 91.9717 94.4693 91.9717C91.9313 91.9717 89.7022 91.4212 87.782 90.32C85.8751 89.2055 84.398 87.5941 83.3506 85.4858C82.3166 83.3775 81.7862 80.9 81.7593 78.0532V76.0591C81.7593 73.1317 82.2495 70.6004 83.2297 68.4653C84.2235 66.3168 85.6469 64.6785 87.5 63.5505C89.3665 62.4091 91.5486 61.8384 94.0463 61.8384C97.5243 61.8384 100.244 62.6709 102.204 64.3361C104.165 65.9878 105.326 68.3982 105.689 71.5673H99.8071C99.5385 69.8887 98.941 68.66 98.0144 67.8812C97.1013 67.1023 95.839 66.7129 94.2276 66.7129C92.1731 66.7129 90.6087 67.485 89.5344 69.0293C88.4601 70.5736 87.9163 72.8698 87.9028 75.9181V77.7913C87.9028 80.8664 88.487 83.1896 89.6552 84.7607C90.8235 86.3318 92.5356 87.1174 94.7916 87.1174C97.061 87.1174 98.6791 86.6339 99.646 85.6671V80.6113H94.147V76.1598H105.689V87.8626Z" fill="white"/>
</g>
<defs>
<clipPath id="clip0">
<rect width="136.256" height="136.256" fill="white" transform="translate(0.21875)"/>
</clipPath>
</defs>
</svg>
